<svg width="117" height="115" viewBox="0 0 117 115" fill="none" xmlns="http://www.w3.org/2000/svg">
<mask id="mask0_118_2845" style="mask-type:luminance" maskUnits="userSpaceOnUse" x="0" y="0" width="117" height="115">
<path d="M58.0424 115C90.0984 115 116.085 89.2563 116.085 57.5C116.085 25.7436 90.0984 0 58.0424 0C25.9865 0 0 25.7436 0 57.5C0 89.2563 25.9865 115 58.0424 115Z" fill="white"/>
</mask>
<g mask="url(#mask0_118_2845)">
<path d="M58.0424 115C90.0984 115 116.085 89.2563 116.085 57.5C116.085 25.7436 90.0984 0 58.0424 0C25.9865 0 0 25.7436 0 57.5C0 89.2563 25.9865 115 58.0424 115Z" fill="#8FC3D8"/>
</g>
<mask id="mask1_118_2845" style="mask-type:luminance" maskUnits="userSpaceOnUse" x="0" y="0" width="117" height="115">
<path d="M58.0424 115C90.0984 115 116.085 89.2563 116.085 57.5C116.085 25.7436 90.0984 0 58.0424 0C25.9865 0 0 25.7436 0 57.5C0 89.2563 25.9865 115 58.0424 115Z" fill="white"/>
</mask>
<g mask="url(#mask1_118_2845)">
<path d="M17.8223 115H98.2633C98.2633 115 102.023 95.4713 98.2633 90.6576C93.8384 84.9924 70.2603 83.4705 70.2603 83.4705H45.8239C45.8239 83.4705 22.2471 84.9924 17.821 90.6576C14.0627 95.4701 17.8223 115 17.8223 115Z" fill="#FC611F"/>
<path d="M58.042 83.4705H45.8239C45.8239 83.4705 45.9026 94.2915 58.042 103.191C70.1841 94.2915 70.259 83.4705 70.259 83.4705H58.042Z" fill="white"/>
<path d="M80.0623 49.606C78.4066 48.5985 75.9751 50.5393 74.6343 53.9417C73.2923 57.3441 73.5475 60.9189 75.2032 61.9264C76.8588 62.9326 79.2903 60.9931 80.6311 57.5907C81.9731 54.187 81.7167 50.6123 80.0623 49.606Z" fill="#FEE69F"/>
<path d="M36.024 49.606C37.6797 48.5985 40.1111 50.5393 41.4532 53.9417C42.794 57.3441 42.5413 60.9189 40.8831 61.9264C39.2262 62.9326 36.7972 60.9931 35.4552 57.5907C34.1131 54.187 34.3671 50.6123 36.024 49.606Z" fill="#FEE69F"/>
<path d="M68.1388 59.5439H47.9457L45.8241 83.4702C45.8241 86.1167 51.2939 88.2625 58.0423 88.2625C64.7907 88.2625 70.2592 86.1167 70.2592 83.4702L68.1388 59.5439Z" fill="#FEE69F"/>
<path d="M80.5391 43.5306C80.5391 59.2848 70.4667 77.0742 58.0415 77.0742C45.6164 77.0742 35.5439 59.2848 35.5439 43.5306C35.5439 27.7777 45.6164 20.0232 58.0415 20.0232C70.4667 20.0232 80.5391 27.7777 80.5391 43.5306Z" fill="#FEE69F"/>
<path opacity="0.4" d="M58.0413 20.0232C45.6162 20.0232 35.545 27.7777 35.545 43.5306C35.545 59.2848 45.6175 77.0742 58.0413 77.0742V20.0232Z" fill="white"/>
<path opacity="0.1" d="M58.0431 77.0742C53.9623 77.0742 50.1393 75.1472 46.8393 72.0127L46.7225 73.3259C50.0491 76.5308 53.9115 78.5119 58.0431 78.5119C62.1708 78.5119 66.0357 76.5446 69.3623 73.3435L69.2442 72.014C65.9456 75.1485 62.1226 77.0742 58.0431 77.0742Z" fill="black"/>
<path d="M79.2952 34.5724C79.2952 34.5724 79.233 34.3649 79.1149 33.9749C78.9765 33.5913 78.8711 33.0001 78.5575 32.3008C78.4115 31.9461 78.2502 31.5536 78.075 31.1247C77.8655 30.7134 77.6383 30.2669 77.3958 29.7914C76.8828 28.8519 76.22 27.8305 75.3719 26.8066C74.5059 25.8016 73.494 24.7589 72.2637 23.842C71.0638 22.8848 69.6456 22.0684 68.1118 21.3917C66.5818 20.6924 64.8982 20.2182 63.1727 19.8735C61.4345 19.5251 59.6633 19.4207 57.8489 19.4019C56.1285 19.4169 54.2735 19.6295 52.562 19.9603C50.8365 20.3339 49.1833 20.8924 47.6521 21.5829C46.1412 22.3162 44.7394 23.1527 43.5611 24.1388C42.9492 24.6017 42.4324 25.1438 41.9017 25.6268C41.4306 26.1702 40.9266 26.6494 40.5355 27.1877C39.7051 28.2254 39.0703 29.2657 38.584 30.2179C38.3529 30.7021 38.118 31.1423 37.9377 31.5675C37.7714 31.9964 37.6178 32.3914 37.4794 32.7473C37.1873 33.453 37.0858 34.0517 36.9575 34.4366C36.8483 34.8277 36.7899 35.0378 36.7899 35.0378C36.9321 34.7623 37.0883 34.4969 37.2775 34.263C37.6051 34.9913 38.1599 35.795 38.9738 36.7057C39.1223 35.9019 39.4397 35.2504 39.8664 34.6869C40.2104 35.4089 40.7843 36.2026 41.6173 37.0956C41.7468 36.2894 42.049 35.6302 42.4641 35.0592C42.8235 35.7749 43.4113 36.5522 44.2633 37.4277C44.3763 36.6176 44.6645 35.9535 45.0657 35.3711C45.4416 36.0793 46.0459 36.844 46.9169 37.6993C47.0122 36.8893 47.2839 36.2164 47.6724 35.6265C48.0622 36.3246 48.6843 37.078 49.5706 37.9145C49.6468 37.1006 49.9058 36.4227 50.2791 35.8252C50.6854 36.5157 51.3253 37.2554 52.2306 38.0717C52.2902 37.2566 52.5302 36.5736 52.8921 35.9686C53.3123 36.6491 53.9688 37.3748 54.8918 38.1723C54.935 37.3597 55.1572 36.6667 55.5051 36.0529C55.9406 36.7233 56.6123 37.4365 57.5544 38.2113C57.5772 37.3962 57.7867 36.7019 58.1194 36.0805C58.5701 36.7422 59.2583 37.439 60.2169 38.1962C60.222 37.3799 60.415 36.6818 60.7349 36.0541C61.2022 36.7057 61.9018 37.3899 62.8756 38.1232C62.8629 37.3082 63.0432 36.605 63.3505 35.9698C63.8292 36.6113 64.5465 37.2755 65.5369 37.9887C65.5064 37.1736 65.6702 36.468 65.9622 35.8252C66.4574 36.4566 67.1887 37.1069 68.1956 37.7975C68.1461 36.9836 68.2946 36.273 68.5714 35.6252C69.0806 36.2441 69.8259 36.8793 70.8493 37.5484C70.782 36.7346 70.9127 36.0227 71.1768 35.3699C71.6987 35.9774 72.4605 36.5975 73.4978 37.244C73.4128 36.4315 73.5296 35.7171 73.7784 35.058C74.313 35.6567 75.0875 36.2566 76.1388 36.8805C76.0359 36.0705 76.1375 35.3535 76.3724 34.6894C76.9209 35.2756 77.7094 35.8592 78.7772 36.4591C78.6553 35.6516 78.7391 34.9309 78.9613 34.2617C79.0616 34.3674 79.1784 34.4693 79.2952 34.5724Z" fill="#8F6C08"/>
</g>
</svg>
